<svg width="45" height="45" viewBox="0 0 45 45" fill="none" xmlns="http://www.w3.org/2000/svg">
<circle cx="22.5" cy="22.5" r="21.5" fill="white" stroke="#F13C6E" stroke-width="2"/>
<path d="M35.8947 28.5257C35.8607 28.4627 35.8291 28.4105 35.7997 28.3686C35.3131 27.6144 34.3833 26.6888 33.0109 25.5913L32.9819 25.5662L32.9674 25.5538L32.9527 25.5412H32.938C32.3151 25.0302 31.9206 24.6866 31.7554 24.5106C31.4532 24.1755 31.3855 23.8363 31.5507 23.4926C31.6674 23.233 32.1057 22.6845 32.8648 21.8467C33.264 21.4026 33.5802 21.0467 33.8137 20.7786C35.4978 18.8517 36.228 17.6204 36.004 17.0842L35.917 16.9589C35.8585 16.8835 35.7077 16.8145 35.4646 16.7515C35.221 16.6887 34.9096 16.6783 34.5299 16.7202L30.3249 16.7452C30.2568 16.7244 30.1595 16.7263 30.0328 16.7515C29.9062 16.7767 29.8429 16.7893 29.8429 16.7893L29.7697 16.8208L29.7116 16.8586C29.6629 16.8836 29.6094 16.9276 29.5509 16.9904C29.4928 17.0531 29.4441 17.1266 29.4053 17.2103C28.9475 18.224 28.4269 19.1664 27.8428 20.0376C27.4826 20.5571 27.1518 21.0073 26.8497 21.3885C26.548 21.7696 26.2949 22.0503 26.0907 22.2303C25.8861 22.4104 25.7015 22.5548 25.5357 22.6638C25.3702 22.7728 25.2438 22.8189 25.1563 22.8021C25.0686 22.7852 24.986 22.7685 24.9078 22.7518C24.7716 22.6763 24.6621 22.5737 24.5795 22.4439C24.4965 22.314 24.4407 22.1506 24.4115 21.9538C24.3824 21.7568 24.3653 21.5873 24.3603 21.4448C24.3558 21.3025 24.3579 21.1013 24.3678 20.8416C24.3779 20.5818 24.3824 20.406 24.3824 20.3138C24.3824 19.9954 24.3896 19.6499 24.4041 19.2771C24.4188 18.9043 24.4308 18.609 24.4407 18.3914C24.4507 18.1735 24.4553 17.9431 24.4553 17.7001C24.4553 17.4572 24.4381 17.2666 24.4041 17.1284C24.3706 16.9902 24.3191 16.8562 24.2512 16.7262C24.1829 16.5964 24.083 16.4959 23.9519 16.4246C23.8205 16.3534 23.6572 16.2969 23.4628 16.2549C22.9468 16.1544 22.2898 16.1001 21.4915 16.0916C19.681 16.0749 18.5177 16.1755 18.0018 16.3933C17.7974 16.4854 17.6124 16.6111 17.4471 16.7702C17.2718 16.9545 17.2473 17.0552 17.3739 17.0717C17.958 17.147 18.3715 17.3272 18.6149 17.612L18.7026 17.7629C18.7708 17.8718 18.8389 18.0646 18.9071 18.341C18.9752 18.6174 19.0191 18.9231 19.0384 19.2581C19.087 19.8697 19.087 20.3933 19.0384 20.8288C18.9897 21.2646 18.9437 21.6038 18.8998 21.8467C18.8558 22.0897 18.7902 22.2865 18.7026 22.4373C18.6149 22.5881 18.5565 22.6802 18.5273 22.7137C18.4981 22.7471 18.4738 22.7682 18.4544 22.7765C18.3279 22.8182 18.1963 22.8395 18.0601 22.8395C17.9237 22.8395 17.7583 22.7808 17.5637 22.6634C17.3691 22.5461 17.1672 22.3849 16.9578 22.1796C16.7485 21.9743 16.5125 21.6874 16.2495 21.3188C15.9868 20.9503 15.7143 20.5147 15.432 20.012L15.1984 19.6475C15.0524 19.413 14.8529 19.0716 14.5998 18.6235C14.3466 18.1752 14.1228 17.7416 13.9282 17.3227C13.8504 17.1468 13.7335 17.0129 13.5778 16.9207L13.5047 16.8829C13.4561 16.8494 13.3782 16.8139 13.2712 16.7761C13.164 16.7383 13.0522 16.7112 12.9353 16.6945L8.93465 16.7195C8.52583 16.7195 8.24844 16.7992 8.10238 16.9584L8.04393 17.0337C8.01473 17.0756 8 17.1426 8 17.2348C8 17.327 8.0292 17.4401 8.08766 17.574C8.67168 18.7553 9.3068 19.8946 9.993 20.992C10.6792 22.0895 11.2755 22.9735 11.7815 23.6432C12.2877 24.3135 12.8036 24.9461 13.3293 25.5407C13.8549 26.1356 14.2029 26.5168 14.3731 26.6842C14.5436 26.852 14.6775 26.9774 14.7748 27.0612L15.1399 27.3627C15.3735 27.5638 15.7166 27.8047 16.1692 28.0852C16.622 28.366 17.1232 28.6424 17.6731 28.9149C18.2232 29.1869 18.8631 29.4089 19.5933 29.5806C20.3233 29.7525 21.0338 29.8215 21.725 29.7882H23.4042C23.7447 29.7629 24.0027 29.6707 24.1781 29.5117L24.2362 29.4487C24.2752 29.3987 24.3118 29.321 24.3456 29.2165C24.3797 29.1118 24.3967 28.9964 24.3967 28.8709C24.3867 28.5108 24.4186 28.1862 24.4914 27.8972C24.5642 27.6083 24.6471 27.3905 24.7399 27.2438C24.8326 27.0972 24.9373 26.9735 25.0537 26.8733C25.1704 26.7728 25.2536 26.7119 25.3024 26.691C25.3508 26.6699 25.3895 26.6556 25.4187 26.647C25.6524 26.58 25.9273 26.6449 26.244 26.8419C26.5604 27.0388 26.8571 27.2819 27.1347 27.5708C27.4122 27.8599 27.7455 28.1844 28.1348 28.5445C28.5243 28.9048 28.8649 29.1726 29.1568 29.3488L29.4487 29.4996C29.6437 29.6002 29.8968 29.6924 30.2083 29.7761C30.5193 29.8598 30.7918 29.8808 31.0258 29.8389L34.7635 29.7888C35.1332 29.7888 35.4208 29.7361 35.6249 29.6316C35.8293 29.5268 35.9508 29.4115 35.99 29.286C36.029 29.1604 36.0311 29.0179 35.9974 28.8586C35.9628 28.6996 35.9287 28.5885 35.8947 28.5257Z" fill="#F13C6E"/>
</svg>
