<svg width="45" height="45" viewBox="0 0 45 45" fill="none" xmlns="http://www.w3.org/2000/svg">
<circle cx="22.5" cy="22.5" r="21.5" fill="white" stroke="#F13C6E" stroke-width="2"/>
<path d="M28.5749 16.0898H15.6069C13.0626 16.0898 11 17.8993 11 20.1313V25.8184C11 28.0504 13.0626 29.8599 15.6069 29.8599H28.5749C31.1193 29.8599 33.1818 28.0504 33.1818 25.8184V20.1313C33.1818 17.8993 31.1193 16.0898 28.5749 16.0898ZM25.4593 23.2515L19.3938 25.7894C19.2321 25.857 19.0454 25.7537 19.0454 25.5966V20.3622C19.0454 20.2029 19.237 20.0997 19.399 20.1717L25.4646 22.8682C25.6449 22.9483 25.6418 23.1752 25.4593 23.2515Z" fill="#F13C6E"/>
</svg>
